<svg xmlns="http://www.w3.org/2000/svg" width="180" height="32" viewBox="0 0 180 32" fill="none"><g clip-path="url(#clip0_21_354)"><path fill-rule="evenodd" clip-rule="evenodd" d="M56.8456 12.9084H55.6759V5.5H49.3005V25.9215H55.6759V18.0151H56.8456L58.5697 25.9215H64.9395V23.3819L62.0733 15.127L64.4405 8.03954V5.5H58.359L56.8456 12.9084ZM73.0666 25.9215V5.5H66.6968V25.9215H73.0666ZM78.3609 10.6344V25.9215H84.7639V10.6344H87.8352L88.8608 8.03954V5.5H74.5357V10.6344H78.3609ZM91.4552 15.7965L97.0101 19.4703V20.8147H89.7311V25.9215H100.869C102.36 25.9215 103.413 24.8702 103.413 23.3819V18.7455C103.413 17.1133 103.092 16.2059 101.689 15.2764L96.1342 11.5695V10.6344H102.421L103.413 8.00635V5.5H92.3034C90.7844 5.5 89.7311 6.55123 89.7311 8.03954V12.3274C89.7311 13.9596 90.0527 14.8338 91.4552 15.7965ZM108.175 5.5L104.577 15.8297V22.0707H113.608V25.9215H120.011V13.2569H113.608V16.9639H111.097V15.885L113.846 8.03954V5.5H108.175ZM122.351 25.9215H135.157V20.8147H128.726V5.5H122.351V25.9215ZM150.297 25.9215V20.8147H142.99V18.0151H149.277V12.9084H142.99V10.6344H149.277L150.302 8.03954V5.5H136.62V25.9215H150.297ZM153.19 15.7965L158.745 19.4703V20.8147H151.466V25.9215H162.604C164.095 25.9215 165.148 24.8702 165.148 23.3819V18.7455C165.148 17.1133 164.827 16.2059 163.424 15.2764L157.869 11.5695V10.6344H164.156L165.148 8.00635V5.5H154.039C152.52 5.5 151.466 6.55123 151.466 8.03954V12.3274C151.466 13.9596 151.788 14.8338 153.19 15.7965ZM168.042 15.7965L173.597 19.4703V20.8147H166.318V25.9215H177.455C178.947 25.9215 180 24.8702 180 23.3819V18.7455C180 17.1133 179.679 16.2059 178.276 15.2764L172.721 11.5695V10.6344H179.008L180 8.00635V5.5H168.89C167.371 5.5 166.318 6.55123 166.318 8.03954V12.3274C166.318 13.9596 166.64 14.8338 168.042 15.7965Z" fill="white"></path><path fill-rule="evenodd" clip-rule="evenodd" d="M27.2642 0L31.81 7.85654L36.3559 15.7131L31.81 23.5696L27.2642 31.4261H18.1724H9.08621L4.54033 23.5696L0 15.7075L4.54588 7.851L9.08621 0H18.1724H27.2642ZM8.90881 20.1116H11.9967H14.314H16.9417L13.5822 25.921H18.178H24.0876L27.0424 20.8143L29.9972 15.7075L27.4471 11.3035H22.042L18.3276 17.727H15.6999L22.7682 5.49958H18.1724H12.2683L9.3135 10.6063L6.35868 15.7131L8.90881 20.1116Z" fill="white"></path></g><defs><clipPath id="clip0_21_354"><rect width="180" height="31.4151" fill="white"></rect></clipPath></defs></svg>